# xmcd
# Track frame offsets:
# 150
# 15027
# 29633
# 48031
# 64228
# 81124
# 96275
# 109391
# 124124
# 142680
# 158354
# 170678
# 190196
# 207544
#
# Disc length: 2988 seconds
# Revision: 0
# Processed by: cddbd v1.5.1PL0 Copyright (c) Steve Scherf et al.
# Submitted via: VisiTrax 2.9.9.202 - For more info visit www.synapsa.com
#
DISCID=b20baa0e
DTITLE=Jill Johnson - Roots and Wings
DYEAR=2003
DGENRE=Country
TTITLE0=Can't Get Enough of You
TTITLE1=God's Gift
TTITLE2=Breakfast in New York
TTITLE3=Nathalie
TTITLE4=A Woman Knows
TTITLE5=You Can't Love Me Too Much
TTITLE6=Good For You
TTITLE7=You're Still Here
TTITLE8=Hopelessly Devoted
TTITLE9=Roots and Wings
TTITLE10=It Ain't the End of The World
TTITLE11=When I Found You
TTITLE12=Time Will Fly
TTITLE13=Desperado
EXTD=
EXTT0=
EXTT1=
EXTT2=
EXTT3=
EXTT4=
EXTT5=
EXTT6=
EXTT7=
EXTT8=
EXTT9=
EXTT10=
EXTT11=
EXTT12=
EXTT13=
PLAYORDER=
